<?xml version="1.0" encoding="utf-8"?>
<!-- Generator: Adobe Illustrator 16.0.0, SVG Export Plug-In . SVG Version: 6.00 Build 0)  -->
<!DOCTYPE svg PUBLIC "-//W3C//DTD SVG 1.1//EN" "http://www.w3.org/Graphics/SVG/1.1/DTD/svg11.dtd">
<svg version="1.1" id="Layer_1" xmlns="http://www.w3.org/2000/svg" xmlns:xlink="http://www.w3.org/1999/xlink" x="0px" y="0px"
	 width="510.24px" height="170.08px" viewBox="0 0 510.24 170.08" enable-background="new 0 0 510.24 170.08" xml:space="preserve">
<g>
	<path fill="#C7C8CA" d="M71.381,62.894v16.484h39.4c-1.206,9.245-4.289,16.016-8.979,20.771
		c-5.763,5.764-14.743,12.063-30.422,12.063c-24.257,0-43.221-19.566-43.221-43.824s18.964-43.824,43.221-43.824
		c13.067,0,22.65,5.16,29.686,11.794l11.592-11.593C102.874,15.25,89.743,8.014,71.381,8.014c-33.237,0-61.179,27.072-61.179,60.308
		c0,33.236,27.942,60.309,61.179,60.309c17.958,0,31.493-5.896,42.082-16.888c10.855-10.854,14.273-26.197,14.273-38.528
		c0-3.819-0.27-7.371-0.872-10.32H71.381z"/>
	<path fill="#C7C8CA" d="M176.988,49.493c-21.51,0-39.066,16.35-39.066,38.932c0,22.382,17.557,38.934,39.066,38.934
		c21.507,0,39.065-16.485,39.065-38.934C216.053,65.843,198.495,49.493,176.988,49.493 M176.988,112.012
		c-11.794,0-21.981-9.718-21.981-23.587c0-14.006,10.187-23.588,21.981-23.588c11.793,0,21.98,9.582,21.98,23.588
		C198.968,102.294,188.781,112.012,176.988,112.012"/>
	<path fill="#C7C8CA" d="M368.5,58.204h-0.604c-3.818-4.557-11.191-8.711-20.504-8.711c-19.434,0-36.389,16.952-36.389,38.932
		c0,21.844,16.955,38.934,36.389,38.934c9.313,0,16.686-4.156,20.504-8.847h0.604v5.427c0,14.877-7.975,22.85-20.773,22.85
		c-10.453,0-16.953-7.503-19.633-13.87l-14.877,6.166c4.287,10.317,15.613,22.982,34.51,22.982
		c20.037,0,36.988-11.791,36.988-40.538V51.502H368.5V58.204z M348.865,112.012c-11.793,0-20.771-10.052-20.771-23.587
		c0-13.736,8.979-23.588,20.771-23.588c11.66,0,20.773,10.051,20.773,23.721C369.705,102.162,360.525,112.012,348.865,112.012"/>
	<path fill="#C7C8CA" d="M264.1,49.493c-21.509,0-39.067,16.35-39.067,38.932c0,22.382,17.558,38.934,39.067,38.934
		c21.508,0,39.066-16.485,39.066-38.934C303.166,65.843,285.607,49.493,264.1,49.493 M264.1,112.012
		c-11.794,0-21.981-9.718-21.981-23.587c0-14.006,10.187-23.588,21.981-23.588c11.795,0,21.98,9.582,21.98,23.588
		C286.08,102.294,275.895,112.012,264.1,112.012"/>
	<rect x="398.117" y="9.621" fill="#C7C8CA" width="16.818" height="117.735"/>
	<path fill="#C7C8CA" d="M466.869,112.012c-8.713,0-14.877-3.954-18.896-11.792l52.066-21.512l-1.742-4.422
		c-3.217-8.712-13.133-24.794-33.305-24.794c-20.035,0-36.721,15.747-36.721,38.931c0,21.846,16.482,38.934,38.598,38.934
		c17.824,0,28.145-10.924,32.432-17.221l-13.268-8.847C481.611,107.724,475.58,112.012,466.869,112.012z M465.662,64.101
		c6.902,0,12.799,3.552,14.744,8.577l-35.182,14.541C445.225,70.868,456.816,64.101,465.662,64.101"/>
</g>
</svg>
