<?xml version="1.0" encoding="utf-8"?>
<!-- Generator: Adobe Illustrator 16.0.0, SVG Export Plug-In . SVG Version: 6.00 Build 0)  -->
<!DOCTYPE svg PUBLIC "-//W3C//DTD SVG 1.1//EN" "http://www.w3.org/Graphics/SVG/1.1/DTD/svg11.dtd">
<svg version="1.1" id="Layer_1" xmlns="http://www.w3.org/2000/svg" xmlns:xlink="http://www.w3.org/1999/xlink" x="0px" y="0px"
	 width="510.24px" height="170.08px" viewBox="0 0 510.24 170.08" enable-background="new 0 0 510.24 170.08" xml:space="preserve">
<g>
	<g>
		<g>
			<g>
				<path fill="#E9AE3B" d="M203.278,62.573h4.342v29.475h-4.342V62.573z"/>
			</g>
			<g>
				<path fill="#E9AE3B" d="M234.183,62.573h4.089l15.011,22.22v-22.22h4.342v29.475h-4.132l-15.008-22.225v22.225h-4.302V62.573z"
					/>
			</g>
			<g>
				<path fill="#E9AE3B" d="M291.648,66.194h-9.146v-3.621h22.64v3.621h-9.148v25.854h-4.345V66.194z"/>
			</g>
			<g>
				<path fill="#E9AE3B" d="M330.015,62.573h19.438v3.621h-15.135v9.325h11.298v3.582h-11.298v9.364h15.135v3.582h-19.438V62.573z"
					/>
			</g>
			<g>
				<path fill="#E9AE3B" d="M374.961,62.573h11.847c3.149,0,5.566,0.76,7.253,2.278s2.531,3.735,2.531,6.661
					c0,2.164-0.578,4.002-1.729,5.503c-1.156,1.503-2.785,2.522-4.895,3.056l6.493,11.977h-4.466l-6.283-11.636h-6.447v11.636
					h-4.304V62.573z M386.091,76.783c1.885,0,3.382-0.447,4.492-1.327c1.11-0.89,1.664-2.204,1.664-3.943
					c0-1.911-0.542-3.271-1.625-4.087c-1.082-0.817-2.589-1.231-4.531-1.231h-6.826v10.589H386.091z"/>
			</g>
			<g>
				<path fill="#E9AE3B" d="M422.311,62.573h4.338v29.475h-4.338V62.573z"/>
			</g>
			<g>
				<path fill="#E9AE3B" d="M464.133,62.573h4.132l11.762,29.475h-4.381l-2.954-7.34h-13.027l-2.866,7.34h-4.426L464.133,62.573z
					 M471.513,81.126l-5.312-13.786l-5.312,13.786H471.513z"/>
			</g>
		</g>
		<g>
			<g>
				<path fill="#988F7C" d="M203.825,102.372v11.224h0.582c0.119,0,0.228-0.023,0.338-0.052c0.103-0.033,0.22-0.112,0.345-0.243
					l5.047-4.789c0.085-0.109,0.177-0.182,0.278-0.239c0.103-0.051,0.227-0.085,0.381-0.085h1.063l-5.553,5.278
					c-0.155,0.176-0.319,0.317-0.495,0.419c0.135,0.066,0.251,0.146,0.35,0.227c0.095,0.096,0.19,0.197,0.284,0.316l5.831,6.349
					h-1.052c-0.115,0-0.225-0.017-0.32-0.057c-0.099-0.034-0.189-0.119-0.273-0.237l-5.287-5.663
					c-0.067-0.074-0.132-0.136-0.194-0.187c-0.063-0.053-0.13-0.091-0.197-0.119c-0.067-0.035-0.146-0.051-0.233-0.069
					c-0.091-0.011-0.198-0.017-0.324-0.017h-0.569v6.349h-1.213v-18.404H203.825z"/>
			</g>
			<g>
				<path fill="#988F7C" d="M219.043,103.846c0,0.163-0.03,0.299-0.098,0.43c-0.062,0.131-0.143,0.25-0.244,0.346
					c-0.101,0.102-0.219,0.188-0.354,0.245c-0.135,0.057-0.278,0.085-0.43,0.085s-0.295-0.028-0.432-0.085
					c-0.135-0.058-0.251-0.144-0.353-0.245c-0.101-0.096-0.182-0.215-0.24-0.346s-0.088-0.267-0.088-0.43
					c0-0.142,0.029-0.29,0.088-0.432c0.059-0.136,0.14-0.261,0.24-0.356c0.102-0.102,0.218-0.182,0.353-0.243
					c0.137-0.059,0.28-0.093,0.432-0.093s0.295,0.034,0.43,0.093c0.136,0.062,0.254,0.142,0.354,0.243
					c0.102,0.096,0.183,0.221,0.244,0.356C219.013,103.556,219.043,103.704,219.043,103.846z M218.523,108.188v12.589h-1.2v-12.589
					H218.523z"/>
			</g>
			<g>
				<path fill="#988F7C" d="M228.781,120.981c-0.852,0-1.517-0.238-1.992-0.709c-0.477-0.477-0.715-1.207-0.715-2.188v-8.604h-1.809
					c-0.092,0-0.166-0.021-0.227-0.072c-0.062-0.051-0.088-0.12-0.088-0.216v-0.472l2.147-0.152l0.306-4.501
					c0.017-0.074,0.049-0.143,0.1-0.204c0.05-0.057,0.124-0.086,0.215-0.086h0.571v4.808h3.972v0.896h-3.972v8.536
					c0,0.352,0.044,0.642,0.132,0.89c0.091,0.25,0.21,0.455,0.366,0.618c0.154,0.16,0.341,0.277,0.551,0.352
					c0.211,0.08,0.439,0.12,0.685,0.12c0.302,0,0.564-0.046,0.781-0.136c0.219-0.091,0.409-0.182,0.569-0.29
					c0.162-0.107,0.293-0.203,0.392-0.294c0.104-0.085,0.185-0.131,0.241-0.131c0.069,0,0.136,0.04,0.203,0.131l0.328,0.525
					c-0.32,0.357-0.726,0.637-1.22,0.853C229.826,120.874,229.314,120.981,228.781,120.981z"/>
			</g>
			<g>
				<path fill="#988F7C" d="M244.958,109.871c-0.041,0.045-0.082,0.08-0.121,0.108c-0.038,0.033-0.09,0.046-0.156,0.046
					c-0.083,0-0.197-0.059-0.342-0.171c-0.142-0.114-0.338-0.239-0.581-0.375c-0.247-0.136-0.551-0.259-0.919-0.373
					c-0.365-0.114-0.81-0.171-1.335-0.171c-0.725,0-1.364,0.136-1.928,0.387c-0.561,0.261-1.034,0.629-1.421,1.11
					c-0.388,0.478-0.682,1.056-0.88,1.74c-0.198,0.686-0.295,1.45-0.295,2.306c0,0.885,0.102,1.666,0.308,2.354
					c0.206,0.68,0.5,1.258,0.879,1.729c0.379,0.464,0.838,0.82,1.378,1.065c0.541,0.243,1.14,0.368,1.796,0.368
					c0.607,0,1.116-0.074,1.524-0.216c0.411-0.146,0.747-0.301,1.013-0.472c0.265-0.163,0.474-0.328,0.626-0.464
					c0.152-0.142,0.278-0.221,0.38-0.221c0.101,0,0.186,0.045,0.253,0.13l0.316,0.402c-0.194,0.256-0.441,0.488-0.733,0.709
					c-0.297,0.222-0.631,0.408-1,0.573c-0.372,0.157-0.773,0.282-1.208,0.368c-0.434,0.09-0.887,0.136-1.36,0.136
					c-0.802,0-1.531-0.147-2.194-0.432c-0.662-0.294-1.232-0.72-1.708-1.269c-0.478-0.557-0.845-1.231-1.111-2.03
					c-0.266-0.805-0.398-1.717-0.398-2.732c0-0.962,0.126-1.841,0.379-2.634c0.253-0.788,0.625-1.476,1.113-2.046
					c0.489-0.578,1.084-1.021,1.787-1.333c0.706-0.318,1.514-0.481,2.424-0.481c0.817,0,1.545,0.136,2.177,0.396
					s1.187,0.618,1.656,1.061L244.958,109.871z"/>
			</g>
			<g>
				<path fill="#988F7C" d="M252.167,110.318c0.582-0.708,1.248-1.273,1.993-1.7c0.747-0.418,1.583-0.634,2.512-0.634
					c0.69,0,1.301,0.112,1.829,0.339c0.524,0.21,0.964,0.533,1.311,0.942c0.343,0.413,0.606,0.912,0.782,1.495
					c0.175,0.579,0.267,1.236,0.267,1.973v8.043h-1.214v-8.043c0-1.184-0.272-2.108-0.811-2.777
					c-0.541-0.669-1.362-1.002-2.469-1.002c-0.817,0-1.582,0.203-2.294,0.629c-0.713,0.413-1.346,0.991-1.906,1.734v9.459h-1.211
					v-18.404h1.211V110.318z"/>
			</g>
			<g>
				<path fill="#988F7C" d="M267.826,113.98v0.237c0,0.954,0.111,1.78,0.335,2.5c0.214,0.72,0.527,1.321,0.933,1.798
					c0.404,0.486,0.893,0.851,1.465,1.093c0.572,0.251,1.219,0.368,1.922,0.368c0.634,0,1.184-0.066,1.644-0.208
					c0.465-0.136,0.855-0.29,1.173-0.466c0.317-0.171,0.567-0.328,0.754-0.47c0.188-0.136,0.317-0.21,0.403-0.21
					c0.111,0,0.191,0.045,0.255,0.13l0.325,0.402c-0.2,0.256-0.467,0.488-0.802,0.709c-0.333,0.222-0.703,0.408-1.111,0.567
					c-0.413,0.152-0.85,0.277-1.318,0.374c-0.467,0.09-0.938,0.136-1.407,0.136c-0.861,0-1.645-0.147-2.354-0.448
					c-0.708-0.306-1.314-0.737-1.824-1.309c-0.504-0.578-0.896-1.281-1.167-2.109c-0.272-0.827-0.413-1.78-0.413-2.857
					c0-0.896,0.128-1.722,0.389-2.487c0.256-0.765,0.629-1.423,1.111-1.978c0.485-0.551,1.08-0.987,1.783-1.3
					c0.705-0.306,1.504-0.469,2.395-0.469c0.709,0,1.366,0.125,1.979,0.373c0.603,0.245,1.133,0.597,1.575,1.071
					c0.447,0.466,0.799,1.039,1.061,1.724c0.255,0.686,0.385,1.469,0.385,2.354c0,0.181-0.025,0.304-0.076,0.379
					c-0.054,0.066-0.136,0.096-0.253,0.096H267.826z M276.228,113.21c0-0.669-0.097-1.274-0.286-1.808
					c-0.186-0.54-0.458-0.993-0.804-1.361c-0.345-0.373-0.755-0.657-1.231-0.855c-0.479-0.199-1.002-0.301-1.577-0.301
					c-0.648,0-1.229,0.102-1.745,0.307c-0.513,0.203-0.955,0.493-1.335,0.874c-0.373,0.379-0.674,0.837-0.9,1.364
					c-0.232,0.533-0.381,1.128-0.459,1.78H276.228z"/>
			</g>
			<g>
				<path fill="#988F7C" d="M284.273,110.394c0.581-0.726,1.253-1.304,2.015-1.746c0.763-0.442,1.613-0.663,2.552-0.663
					c0.69,0,1.298,0.112,1.825,0.339c0.525,0.21,0.963,0.533,1.309,0.942c0.347,0.413,0.607,0.912,0.783,1.495
					c0.182,0.579,0.267,1.236,0.267,1.973v8.043h-1.215v-8.043c0-1.184-0.269-2.108-0.81-2.777
					c-0.539-0.669-1.359-1.002-2.466-1.002c-0.816,0-1.584,0.203-2.296,0.629c-0.711,0.413-1.346,0.991-1.902,1.734v9.459h-1.215
					v-12.589h0.669c0.213,0,0.335,0.108,0.367,0.324L284.273,110.394z"/>
			</g>
			<g>
				<path fill="#988F7C" d="M318.752,102.372v18.404h-0.658c-0.221,0-0.345-0.112-0.379-0.328l-0.128-1.99
					c-0.554,0.76-1.204,1.366-1.95,1.814c-0.739,0.442-1.572,0.669-2.502,0.669c-1.553,0-2.755-0.533-3.616-1.604
					c-0.862-1.071-1.294-2.681-1.294-4.823c0-0.918,0.122-1.768,0.364-2.567c0.237-0.799,0.595-1.497,1.054-2.081
					c0.466-0.583,1.038-1.042,1.716-1.383c0.68-0.335,1.459-0.504,2.346-0.504c0.854,0,1.589,0.152,2.213,0.47
					c0.623,0.312,1.169,0.772,1.633,1.389v-7.465H318.752z M317.55,110.902c-0.481-0.73-1.015-1.234-1.599-1.535
					c-0.589-0.29-1.255-0.442-2.007-0.442c-0.739,0-1.391,0.136-1.949,0.402c-0.555,0.272-1.021,0.652-1.394,1.151
					c-0.378,0.493-0.658,1.082-0.851,1.769c-0.187,0.686-0.284,1.439-0.284,2.267c0,1.87,0.346,3.248,1.033,4.131
					c0.685,0.879,1.677,1.321,2.975,1.321c0.827,0,1.581-0.21,2.267-0.646c0.682-0.431,1.284-1.033,1.809-1.809V110.902z"/>
			</g>
			<g>
				<path fill="#988F7C" d="M325.86,113.98v0.237c0,0.954,0.107,1.78,0.328,2.5c0.219,0.72,0.53,1.321,0.936,1.798
					c0.405,0.486,0.89,0.851,1.468,1.093c0.573,0.251,1.214,0.368,1.923,0.368c0.635,0,1.181-0.066,1.644-0.208
					c0.462-0.136,0.854-0.29,1.168-0.466c0.319-0.171,0.567-0.328,0.754-0.47c0.187-0.136,0.32-0.21,0.405-0.21
					c0.109,0,0.194,0.045,0.253,0.13l0.328,0.402c-0.202,0.256-0.472,0.488-0.8,0.709c-0.335,0.222-0.706,0.408-1.116,0.567
					c-0.408,0.152-0.845,0.277-1.316,0.374c-0.467,0.09-0.935,0.136-1.41,0.136c-0.859,0-1.645-0.147-2.352-0.448
					c-0.709-0.306-1.316-0.737-1.82-1.309c-0.509-0.578-0.896-1.281-1.172-2.109c-0.274-0.827-0.41-1.78-0.41-2.857
					c0-0.896,0.127-1.722,0.386-2.487c0.256-0.765,0.629-1.423,1.111-1.978c0.487-0.551,1.082-0.987,1.785-1.3
					c0.703-0.306,1.505-0.469,2.397-0.469c0.709,0,1.366,0.125,1.972,0.373c0.607,0.245,1.135,0.597,1.583,1.071
					c0.447,0.466,0.8,1.039,1.055,1.724c0.26,0.686,0.385,1.469,0.385,2.354c0,0.181-0.022,0.304-0.074,0.379
					c-0.051,0.066-0.137,0.096-0.254,0.096H325.86z M334.256,113.21c0-0.669-0.091-1.274-0.282-1.808
					c-0.189-0.54-0.461-0.993-0.805-1.361c-0.349-0.373-0.757-0.657-1.231-0.855c-0.477-0.199-1.004-0.301-1.576-0.301
					c-0.649,0-1.23,0.102-1.746,0.307c-0.514,0.203-0.958,0.493-1.332,0.874c-0.381,0.379-0.677,0.837-0.906,1.364
					c-0.229,0.533-0.381,1.128-0.455,1.78H334.256z"/>
			</g>
			<g>
				<path fill="#988F7C" d="M348.069,109.746c-0.067,0.119-0.164,0.176-0.289,0.176c-0.096,0-0.209-0.051-0.354-0.158
					c-0.144-0.103-0.334-0.221-0.574-0.352c-0.245-0.13-0.538-0.25-0.893-0.352c-0.354-0.106-0.786-0.165-1.29-0.165
					c-0.456,0-0.871,0.069-1.247,0.2c-0.375,0.136-0.698,0.306-0.962,0.527c-0.264,0.221-0.47,0.469-0.612,0.765
					c-0.145,0.288-0.217,0.595-0.217,0.912c0,0.402,0.104,0.732,0.305,0.993c0.205,0.254,0.466,0.48,0.788,0.661
					c0.33,0.188,0.703,0.352,1.122,0.482c0.421,0.136,0.851,0.277,1.287,0.408c0.432,0.136,0.859,0.29,1.281,0.447
					c0.423,0.171,0.794,0.374,1.12,0.613c0.323,0.248,0.586,0.543,0.79,0.9c0.205,0.352,0.304,0.781,0.304,1.287
					c0,0.549-0.099,1.059-0.292,1.53c-0.193,0.477-0.479,0.885-0.854,1.23c-0.374,0.345-0.836,0.624-1.385,0.821
					c-0.548,0.205-1.177,0.307-1.885,0.307c-0.885,0-1.651-0.142-2.288-0.427c-0.641-0.282-1.216-0.65-1.725-1.104l0.282-0.432
					c0.043-0.068,0.094-0.119,0.145-0.154c0.053-0.032,0.13-0.045,0.221-0.045c0.109,0,0.243,0.063,0.399,0.199
					c0.155,0.136,0.363,0.277,0.627,0.438c0.261,0.151,0.583,0.299,0.967,0.437c0.385,0.129,0.858,0.197,1.426,0.197
					c0.527,0,0.997-0.068,1.399-0.221c0.405-0.142,0.743-0.347,1.013-0.595c0.271-0.256,0.476-0.557,0.614-0.897
					c0.142-0.339,0.21-0.701,0.21-1.082c0-0.413-0.103-0.771-0.304-1.048c-0.201-0.279-0.468-0.511-0.796-0.709
					c-0.332-0.193-0.703-0.356-1.122-0.493c-0.415-0.13-0.845-0.271-1.281-0.407c-0.442-0.131-0.868-0.277-1.287-0.438
					c-0.418-0.164-0.788-0.362-1.116-0.605c-0.333-0.25-0.597-0.551-0.8-0.895c-0.205-0.353-0.304-0.783-0.304-1.312
					c0-0.441,0.099-0.877,0.291-1.286c0.194-0.414,0.472-0.781,0.828-1.088c0.357-0.312,0.797-0.563,1.311-0.749
					c0.516-0.187,1.094-0.282,1.732-0.282c0.768,0,1.447,0.112,2.042,0.339c0.596,0.21,1.137,0.551,1.627,1.004L348.069,109.746z"/>
			</g>
			<g>
				<path fill="#988F7C" d="M356.292,103.846c0,0.163-0.032,0.299-0.095,0.43c-0.066,0.131-0.146,0.25-0.249,0.346
					c-0.102,0.102-0.218,0.188-0.351,0.245c-0.137,0.057-0.281,0.085-0.432,0.085c-0.153,0-0.294-0.028-0.431-0.085
					c-0.136-0.058-0.253-0.144-0.354-0.245c-0.101-0.096-0.178-0.215-0.239-0.346c-0.058-0.131-0.088-0.267-0.088-0.43
					c0-0.142,0.03-0.29,0.088-0.432c0.062-0.136,0.139-0.261,0.239-0.356c0.102-0.102,0.219-0.182,0.354-0.243
					c0.137-0.059,0.277-0.093,0.431-0.093c0.15,0,0.295,0.034,0.432,0.093c0.133,0.062,0.249,0.142,0.351,0.243
					c0.103,0.096,0.183,0.221,0.249,0.356C356.26,103.556,356.292,103.704,356.292,103.846z M355.773,108.188v12.589h-1.203v-12.589
					H355.773z"/>
			</g>
			<g>
				<path fill="#988F7C" d="M372.722,108.743v0.425c0,0.188-0.119,0.295-0.354,0.341l-1.923,0.136
					c0.236,0.322,0.418,0.68,0.546,1.077c0.126,0.396,0.189,0.822,0.189,1.292c0,0.607-0.108,1.156-0.323,1.645
					c-0.216,0.498-0.519,0.917-0.913,1.263c-0.392,0.357-0.861,0.624-1.415,0.821c-0.552,0.194-1.162,0.29-1.828,0.29
					c-0.714,0-1.371-0.108-1.96-0.33c-0.352,0.205-0.633,0.442-0.84,0.715c-0.206,0.279-0.312,0.545-0.312,0.817
					c0,0.362,0.131,0.64,0.386,0.832c0.261,0.199,0.595,0.341,1.015,0.426c0.416,0.091,0.89,0.142,1.429,0.176
					c0.532,0.017,1.079,0.051,1.639,0.08c0.555,0.027,1.098,0.079,1.631,0.157c0.538,0.074,1.016,0.211,1.435,0.397
					c0.417,0.187,0.754,0.453,1.012,0.799c0.259,0.336,0.389,0.794,0.389,1.356c0,0.521-0.136,1.025-0.396,1.508
					c-0.262,0.48-0.635,0.906-1.131,1.28c-0.493,0.364-1.092,0.663-1.788,0.89c-0.703,0.221-1.486,0.33-2.355,0.33
					c-0.885,0-1.658-0.091-2.327-0.267c-0.664-0.182-1.224-0.432-1.678-0.737c-0.449-0.307-0.785-0.664-1.015-1.066
					c-0.227-0.408-0.343-0.839-0.343-1.292c0-0.669,0.221-1.236,0.66-1.712c0.437-0.477,1.037-0.85,1.797-1.116
					c-0.426-0.144-0.766-0.357-1.021-0.631c-0.258-0.271-0.385-0.646-0.385-1.122c0-0.182,0.032-0.362,0.102-0.555
					c0.064-0.187,0.167-0.381,0.304-0.573c0.133-0.191,0.297-0.367,0.492-0.538c0.193-0.17,0.414-0.317,0.658-0.453
					c-0.602-0.352-1.063-0.811-1.397-1.378c-0.334-0.578-0.499-1.247-0.499-2.012c0-0.611,0.104-1.162,0.317-1.655
					c0.219-0.493,0.522-0.917,0.921-1.269c0.395-0.352,0.87-0.631,1.423-0.823s1.165-0.288,1.839-0.288
					c0.557,0,1.068,0.067,1.537,0.203c0.467,0.131,0.888,0.322,1.258,0.562H372.722z M371.407,121.621
					c0-0.39-0.103-0.714-0.31-0.952c-0.207-0.237-0.484-0.426-0.831-0.562c-0.344-0.142-0.741-0.232-1.196-0.283
					c-0.447-0.062-0.92-0.096-1.413-0.125c-0.493-0.021-0.99-0.051-1.489-0.072c-0.495-0.023-0.962-0.08-1.399-0.159
					c-0.323,0.136-0.618,0.277-0.887,0.442c-0.27,0.165-0.501,0.352-0.694,0.567c-0.197,0.208-0.349,0.442-0.456,0.685
					c-0.111,0.245-0.168,0.517-0.168,0.8c0,0.373,0.097,0.72,0.284,1.031c0.193,0.317,0.471,0.589,0.838,0.828
					c0.364,0.232,0.817,0.413,1.347,0.55c0.53,0.136,1.142,0.204,1.834,0.204c0.64,0,1.236-0.074,1.791-0.221
					c0.551-0.142,1.031-0.347,1.443-0.607c0.408-0.256,0.729-0.572,0.957-0.936C371.29,122.449,371.407,122.053,371.407,121.621z
					 M366.701,115.217c0.538,0,1.021-0.08,1.441-0.239c0.424-0.158,0.778-0.373,1.065-0.65c0.283-0.277,0.504-0.613,0.656-0.997
					c0.154-0.392,0.227-0.818,0.227-1.293c0-0.471-0.078-0.9-0.231-1.292c-0.158-0.397-0.379-0.732-0.672-1.01
					c-0.291-0.277-0.646-0.493-1.063-0.646c-0.419-0.154-0.89-0.229-1.423-0.229s-1.002,0.074-1.422,0.229
					c-0.417,0.152-0.774,0.368-1.066,0.646c-0.289,0.277-0.51,0.612-0.663,1.01c-0.146,0.392-0.227,0.821-0.227,1.292
					c0,0.475,0.08,0.901,0.227,1.293c0.153,0.384,0.374,0.72,0.663,0.997c0.292,0.277,0.649,0.492,1.066,0.65
					C365.699,115.137,366.168,115.217,366.701,115.217z"/>
			</g>
			<g>
				<path fill="#988F7C" d="M379.188,110.394c0.581-0.726,1.252-1.304,2.018-1.746c0.762-0.442,1.613-0.663,2.548-0.663
					c0.691,0,1.301,0.112,1.826,0.339c0.527,0.21,0.965,0.533,1.309,0.942c0.346,0.413,0.607,0.912,0.783,1.495
					c0.181,0.579,0.266,1.236,0.266,1.973v8.043h-1.214v-8.043c0-1.184-0.27-2.108-0.808-2.777
					c-0.541-0.669-1.362-1.002-2.466-1.002c-0.819,0-1.584,0.203-2.295,0.629c-0.715,0.413-1.347,0.991-1.905,1.734v9.459h-1.213
					v-12.589h0.672c0.207,0,0.332,0.108,0.362,0.324L379.188,110.394z"/>
			</g>
			<g>
				<path fill="#988F7C" d="M410.798,109.746c-0.071,0.119-0.165,0.176-0.296,0.176c-0.093,0-0.21-0.051-0.352-0.158
					c-0.144-0.103-0.336-0.221-0.578-0.352c-0.24-0.13-0.538-0.25-0.89-0.352c-0.354-0.106-0.781-0.165-1.293-0.165
					c-0.453,0-0.87,0.069-1.24,0.2c-0.377,0.136-0.698,0.306-0.965,0.527c-0.267,0.221-0.47,0.469-0.61,0.765
					c-0.145,0.288-0.216,0.595-0.216,0.912c0,0.402,0.102,0.732,0.304,0.993c0.2,0.254,0.461,0.48,0.789,0.661
					c0.323,0.188,0.698,0.352,1.12,0.482c0.422,0.136,0.848,0.277,1.283,0.408c0.431,0.136,0.862,0.29,1.281,0.447
					c0.426,0.171,0.794,0.374,1.124,0.613c0.322,0.248,0.586,0.543,0.786,0.9c0.205,0.352,0.307,0.781,0.307,1.287
					c0,0.549-0.099,1.059-0.291,1.53c-0.194,0.477-0.479,0.885-0.857,1.23c-0.376,0.345-0.835,0.624-1.386,0.821
					c-0.544,0.205-1.173,0.307-1.882,0.307c-0.884,0-1.648-0.142-2.29-0.427c-0.64-0.282-1.213-0.65-1.72-1.104l0.277-0.432
					c0.043-0.068,0.094-0.119,0.147-0.154c0.053-0.032,0.128-0.045,0.218-0.045c0.114,0,0.245,0.063,0.402,0.199
					c0.154,0.136,0.363,0.277,0.624,0.438c0.261,0.151,0.584,0.299,0.97,0.437c0.383,0.129,0.855,0.197,1.422,0.197
					c0.53,0,0.998-0.068,1.404-0.221c0.405-0.142,0.741-0.347,1.011-0.595c0.271-0.256,0.477-0.557,0.615-0.897
					c0.139-0.339,0.21-0.701,0.21-1.082c0-0.413-0.104-0.771-0.304-1.048c-0.205-0.279-0.471-0.511-0.799-0.709
					c-0.328-0.193-0.704-0.356-1.117-0.493c-0.419-0.13-0.85-0.271-1.287-0.407c-0.438-0.131-0.86-0.277-1.283-0.438
					c-0.416-0.164-0.791-0.362-1.119-0.605c-0.325-0.25-0.595-0.551-0.8-0.895c-0.202-0.353-0.301-0.783-0.301-1.312
					c0-0.441,0.097-0.877,0.29-1.286c0.195-0.414,0.47-0.781,0.829-1.088c0.357-0.312,0.797-0.563,1.311-0.749
					c0.513-0.187,1.091-0.282,1.731-0.282c0.768,0,1.45,0.112,2.044,0.339c0.595,0.21,1.136,0.551,1.623,1.004L410.798,109.746z"/>
			</g>
			<g>
				<path fill="#988F7C" d="M420.598,120.981c-0.855,0-1.513-0.238-1.992-0.709c-0.476-0.477-0.718-1.207-0.718-2.188v-8.604h-1.804
					c-0.095,0-0.171-0.021-0.23-0.072c-0.058-0.051-0.088-0.12-0.088-0.216v-0.472l2.151-0.152l0.301-4.501
					c0.02-0.074,0.054-0.143,0.102-0.204c0.051-0.057,0.125-0.086,0.216-0.086h0.565v4.808h3.975v0.896h-3.975v8.536
					c0,0.352,0.046,0.642,0.136,0.89c0.091,0.25,0.211,0.455,0.367,0.618c0.161,0.16,0.342,0.277,0.552,0.352
					c0.211,0.08,0.438,0.12,0.681,0.12c0.306,0,0.564-0.046,0.788-0.136c0.219-0.091,0.405-0.182,0.567-0.29
					c0.157-0.107,0.291-0.203,0.391-0.294c0.103-0.085,0.182-0.131,0.244-0.131c0.067,0,0.133,0.04,0.198,0.131l0.332,0.525
					c-0.321,0.357-0.729,0.637-1.222,0.853C421.645,120.874,421.131,120.981,420.598,120.981z"/>
			</g>
			<g>
				<path fill="#988F7C" d="M438.114,108.188v12.589h-0.669c-0.21,0-0.333-0.112-0.365-0.328l-0.117-1.871
					c-0.581,0.72-1.252,1.304-2.018,1.746c-0.764,0.437-1.61,0.658-2.549,0.658c-0.696,0-1.309-0.114-1.83-0.336
					c-0.525-0.214-0.96-0.525-1.307-0.946c-0.343-0.413-0.607-0.906-0.783-1.495c-0.176-0.578-0.266-1.236-0.266-1.974v-8.043h1.212
					v8.043c0,1.185,0.274,2.115,0.815,2.778c0.535,0.675,1.356,1.008,2.462,1.008c0.819,0,1.585-0.208,2.299-0.629
					c0.712-0.413,1.346-0.991,1.902-1.734v-9.466H438.114z"/>
			</g>
			<g>
				<path fill="#988F7C" d="M454.569,102.372v18.404h-0.657c-0.216,0-0.344-0.112-0.379-0.328l-0.125-1.99
					c-0.557,0.76-1.208,1.366-1.948,1.814c-0.74,0.442-1.579,0.669-2.505,0.669c-1.55,0-2.757-0.533-3.62-1.604
					c-0.858-1.071-1.287-2.681-1.287-4.823c0-0.918,0.12-1.768,0.36-2.567c0.241-0.799,0.593-1.497,1.055-2.081
					c0.461-0.583,1.034-1.042,1.716-1.383c0.68-0.335,1.458-0.504,2.346-0.504c0.85,0,1.587,0.152,2.213,0.47
					c0.624,0.312,1.168,0.772,1.631,1.389v-7.465H454.569z M453.368,110.902c-0.479-0.73-1.016-1.234-1.599-1.535
					c-0.587-0.29-1.253-0.442-2.004-0.442c-0.74,0-1.392,0.136-1.947,0.402c-0.56,0.272-1.026,0.652-1.399,1.151
					c-0.375,0.493-0.658,1.082-0.85,1.769c-0.187,0.686-0.285,1.439-0.285,2.267c0,1.87,0.347,3.248,1.034,4.131
					c0.687,0.879,1.679,1.321,2.979,1.321c0.827,0,1.578-0.21,2.261-0.646c0.688-0.431,1.287-1.033,1.81-1.809V110.902z"/>
			</g>
			<g>
				<path fill="#988F7C" d="M463.109,103.846c0,0.163-0.032,0.299-0.094,0.43c-0.065,0.131-0.148,0.25-0.247,0.346
					c-0.104,0.102-0.224,0.188-0.354,0.245c-0.136,0.057-0.277,0.085-0.43,0.085c-0.154,0-0.295-0.028-0.432-0.085
					c-0.136-0.058-0.255-0.144-0.354-0.245c-0.1-0.096-0.182-0.215-0.242-0.346c-0.057-0.131-0.091-0.267-0.091-0.43
					c0-0.142,0.034-0.29,0.091-0.432c0.061-0.136,0.143-0.261,0.242-0.356c0.099-0.102,0.218-0.182,0.354-0.243
					c0.137-0.059,0.277-0.093,0.432-0.093c0.152,0,0.294,0.034,0.43,0.093c0.131,0.062,0.25,0.142,0.354,0.243
					c0.099,0.096,0.182,0.221,0.247,0.356C463.077,103.556,463.109,103.704,463.109,103.846z M462.59,108.188v12.589h-1.202v-12.589
					H462.59z"/>
			</g>
			<g>
				<path fill="#988F7C" d="M474.392,107.984c0.901,0,1.707,0.157,2.424,0.464c0.711,0.312,1.312,0.748,1.801,1.315
					c0.488,0.561,0.861,1.242,1.119,2.042c0.257,0.792,0.385,1.682,0.385,2.673c0,0.986-0.128,1.877-0.385,2.665
					c-0.258,0.794-0.631,1.474-1.119,2.041c-0.489,0.561-1.09,0.997-1.801,1.298c-0.717,0.312-1.522,0.459-2.424,0.459
					s-1.709-0.147-2.423-0.459c-0.711-0.301-1.315-0.737-1.809-1.298c-0.49-0.567-0.869-1.247-1.125-2.041
					c-0.259-0.788-0.386-1.679-0.386-2.665c0-0.991,0.127-1.881,0.386-2.673c0.256-0.8,0.635-1.481,1.125-2.042
					c0.493-0.567,1.098-1.004,1.809-1.315C472.683,108.142,473.49,107.984,474.392,107.984z M474.392,119.995
					c0.749,0,1.403-0.136,1.968-0.387c0.56-0.255,1.025-0.629,1.402-1.11c0.378-0.482,0.655-1.061,0.842-1.735
					c0.187-0.685,0.277-1.439,0.277-2.284c0-0.837-0.091-1.597-0.277-2.276c-0.187-0.687-0.464-1.266-0.842-1.753
					c-0.377-0.482-0.843-0.855-1.402-1.122c-0.564-0.256-1.219-0.392-1.968-0.392c-0.753,0-1.407,0.136-1.967,0.392
					c-0.561,0.267-1.028,0.64-1.405,1.122c-0.375,0.487-0.655,1.066-0.847,1.753c-0.191,0.68-0.285,1.439-0.285,2.276
					c0,0.845,0.094,1.6,0.285,2.284c0.191,0.675,0.472,1.253,0.847,1.735c0.377,0.481,0.845,0.855,1.405,1.11
					C472.984,119.859,473.639,119.995,474.392,119.995z"/>
			</g>
		</g>
	</g>
	<g>
		<g>
			<path fill="#978E7B" d="M180.371,126.97h-70.573V56.393h70.573V126.97z M113.974,122.794h62.221V60.568h-62.221V122.794z"/>
		</g>
		<g>
			<path fill="#E8AD39" d="M113.974,153.526H56.678V96.225h57.296V153.526z M60.854,149.35h48.943V100.4H60.854V149.35z"/>
		</g>
		<g>
			<path fill="#37231B" d="M113.974,100.4H30.12V16.554h83.854V100.4z M34.296,96.225h75.502V20.729H34.296V96.225z"/>
		</g>
	</g>
</g>
</svg>
