<?xml version="1.0" encoding="utf-8"?>
<!-- Generator: Adobe Illustrator 16.0.0, SVG Export Plug-In . SVG Version: 6.00 Build 0)  -->
<!DOCTYPE svg PUBLIC "-//W3C//DTD SVG 1.1//EN" "http://www.w3.org/Graphics/SVG/1.1/DTD/svg11.dtd">
<svg version="1.1" id="Layer_1" xmlns="http://www.w3.org/2000/svg" xmlns:xlink="http://www.w3.org/1999/xlink" x="0px" y="0px"
	 width="510.24px" height="170.08px" viewBox="0 0 510.24 170.08" enable-background="new 0 0 510.24 170.08" xml:space="preserve">
<g>
	<polygon fill-rule="evenodd" clip-rule="evenodd" fill="#C7C8CA" points="82.811,31.911 102.815,31.911 102.815,74.4 123.531,74.4 
		123.531,31.911 144.523,31.911 144.523,139.289 123.531,139.289 123.531,93.339 102.815,93.339 102.815,139.289 82.811,139.289 
		82.811,31.911 	"/>
	<polygon fill-rule="evenodd" clip-rule="evenodd" fill="#C7C8CA" points="166.306,31.902 188.05,31.902 188.05,139.296 
		166.306,139.296 166.306,31.902 	"/>
	<path fill-rule="evenodd" clip-rule="evenodd" fill="#C7C8CA" d="M467.984,28.103c30.697,0,33.004,19.382,32.587,34.535h-21.317
		c-0.1-23.681-23.341-20.058-23.138-5.396c0.11,8.148,15.032,16.745,27.401,24.352c11.082,6.824,18.758,17.91,19.094,29.93
		c0.089,10.576-4.6,30.452-34.627,30.452c-30.516,0-32.972-22.742-33.075-35.653h20.466c-0.043,26.344,24.73,23.189,24.89,5.972
		c0,0,1.522-8.066-12.099-16.202c-15.346-9.168-32.615-16.022-32.224-38.372C435.942,51.503,437.288,28.103,467.984,28.103
		L467.984,28.103z"/>
	<polygon fill-rule="evenodd" clip-rule="evenodd" fill="#C7C8CA" points="265.726,31.92 287.356,31.92 287.356,122.501 
		310.83,122.501 310.83,139.296 265.726,139.296 265.726,31.92 	"/>
	<polygon fill-rule="evenodd" clip-rule="evenodd" fill="#C7C8CA" points="209.789,31.709 231.421,31.709 231.421,122.285 
		254.893,122.285 254.893,139.086 209.789,139.086 209.789,31.709 	"/>
	<path fill-rule="evenodd" clip-rule="evenodd" fill="#C7C8CA" d="M29.363,47.76v38.813c3.19,0,22.391,4.408,22.318-19.761
		C51.615,45.356,33.782,47.76,29.363,47.76L29.363,47.76z M7.628,31.468v108.365h21.735v-35.326
		c6.049-0.257,41.494,3.486,42.32-34.728c1.16-42.321-34.814-38.311-42.32-38.311H7.628L7.628,31.468z"/>
	<path fill-rule="evenodd" clip-rule="evenodd" fill="#C7C8CA" d="M386.225,47.76v38.813c3.192,0,22.394,4.408,22.32-19.761
		C408.477,45.356,390.643,47.76,386.225,47.76L386.225,47.76z M364.489,31.468v108.365h21.735v-35.326
		c6.05-0.257,41.496,3.486,42.322-34.728c1.157-42.321-34.811-38.311-42.322-38.311H364.489L364.489,31.468z"/>
	<polygon fill-rule="evenodd" clip-rule="evenodd" fill="#C7C8CA" points="321.505,31.911 343.211,31.911 343.211,139.284 
		321.505,139.284 321.505,31.911 	"/>
</g>
</svg>
