<?xml version="1.0" encoding="utf-8"?>
<!-- Generator: Adobe Illustrator 16.0.0, SVG Export Plug-In . SVG Version: 6.00 Build 0)  -->
<!DOCTYPE svg PUBLIC "-//W3C//DTD SVG 1.1//EN" "http://www.w3.org/Graphics/SVG/1.1/DTD/svg11.dtd">
<svg version="1.1" id="Layer_1" xmlns="http://www.w3.org/2000/svg" xmlns:xlink="http://www.w3.org/1999/xlink" x="0px" y="0px"
	 width="510.24px" height="170.08px" viewBox="0 0 510.24 170.08" enable-background="new 0 0 510.24 170.08" xml:space="preserve">
<g>
	<path fill-rule="evenodd" clip-rule="evenodd" fill="#C7C8CA" d="M278.903,82.474c0,0-4.787-2.961-7.748-4.103
		c0,0-9.155-4.244-10.976-6.264c0,0-3.563-3.363-1.477-7.269c0,0,0.874-2.556,4.645-2.556c0,0,4.91,0.27,4.91,4.307v5.694h17.599
		l-0.03-8.386c0,0,1.353-13.733-20.731-14.339c0,0-17.365-1.142-22.347,8.213c0,0-1.954,2.085-1.954,9.357v5.251
		c0,0-0.2,6.057,2.895,9.956c0,0,1.75,2.563,6.061,5.388c0,0,8.749,4.711,14,7.409c0,0,5.303,3.026,4.604,7.841
		c0,0-0.429,4.938-5.551,4.741c0,0-4.681-0.217-4.681-5.06v-5.689H239.37v8.267c0,0-0.527,15.809,23.572,15.809
		c0,0,23.022,0.466,24.099-16.228v-6.727C287.041,98.087,287.85,87.86,278.903,82.474L278.903,82.474z"/>
	<polygon fill-rule="evenodd" clip-rule="evenodd" fill="#C7C8CA" points="188.806,51.525 182.913,88.454 181.535,88.454 
		175.906,51.858 146.508,51.858 145.038,118.726 162.442,118.726 162.65,68.343 164.019,68.343 173.244,118.72 191.555,118.72 
		200.668,68.363 201.881,68.363 202.3,118.726 219.797,118.726 217.914,51.525 188.806,51.525 	"/>
	<polygon fill-rule="evenodd" clip-rule="evenodd" fill="#C7C8CA" points="85.198,51.804 73.617,118.654 92.354,118.654 
		99.213,66.82 100.753,66.82 107.611,118.654 126.345,118.654 114.769,51.804 85.198,51.804 	"/>
	<path fill-rule="evenodd" clip-rule="evenodd" fill="#C7C8CA" d="M478.362,81.554v9.862h4.805v10.587
		c0,5.172-4.422,5.267-4.422,5.267c-5.38,0-5.176-4.914-5.176-4.914V65.738c0-3.771,4.771-3.974,4.771-3.974
		c4.583,0,4.615,4.501,4.615,4.501v5.566h17.639c0.575-10.865-1.589-13.496-1.589-13.496c-4.375-9.828-20.929-9.292-20.929-9.292
		c-25.443,0-22.62,19.521-22.62,19.521v35.404c0.545,18.308,25.611,16.449,26.037,16.426c11.152-1.235,14.521-4.773,14.521-4.773
		c3.099-2.301,3.899-5.489,3.899-5.489c0.884-1.858,1.105-7.775,1.105-7.775V81.554H478.362L478.362,81.554z"/>
	<polygon fill-rule="evenodd" clip-rule="evenodd" fill="#C7C8CA" points="419.887,92.435 419.119,92.435 401.21,51.543 
		379.799,51.543 379.799,118.737 397.227,118.737 396.185,77.853 396.961,77.853 415.508,118.737 436.281,118.737 436.281,51.537 
		418.631,51.537 419.887,92.435 	"/>
	<path fill-rule="evenodd" clip-rule="evenodd" fill="#C7C8CA" d="M337.241,101.996c0,0,0.251,5.514-4.858,5.514
		c0,0-5.384,0.288-5.384-5.376l-0.054-50.549h-19.119v50.148c0,0-1.963,18.979,24.819,18.979c0,0,23.28,0.274,23.28-18.111V51.584
		h-18.685V101.996L337.241,101.996z"/>
	<path fill-rule="evenodd" clip-rule="evenodd" fill="#C7C8CA" d="M48.745,82.474c0,0-4.777-2.961-7.74-4.103
		c0,0-9.154-4.241-10.969-6.264c0,0-3.569-3.366-1.479-7.266c0,0,0.871-2.556,4.64-2.556c0,0,4.912,0.267,4.912,4.304v5.694h17.605
		l-0.034-8.393c0,0,1.344-13.73-20.732-14.333c0,0-1.66-0.107-4.102,0.018c0,0-13.372,0.716-18.152,8.051
		c-0.027,0.054-0.066,0.096-0.093,0.144c0,0-1.953,2.085-1.953,9.357v5.251c0,0-0.203,6.054,2.895,9.956
		c0,0,1.749,2.563,6.059,5.388c0,0,8.746,4.711,13.997,7.403c0,0,5.307,3.025,4.607,7.847c0,0-0.432,4.938-5.548,4.741
		c0,0-4.682-0.217-4.682-5.06V96.96H9.22v8.272c0,0-0.524,15.809,23.571,15.809c0,0,23.019,0.466,24.101-16.228v-6.727
		C56.893,98.087,57.699,87.86,48.745,82.474L48.745,82.474z"/>
</g>
</svg>
